<svg xmlns="http://www.w3.org/2000/svg" width="515" height="497" fill="none"><g transform="translate(91.65 62.86)"><path d="M 261.22 53.32 C 261.22 53.32 309.9 108.48 321.11 123.77 C 332.32 139.07 338.41 213.36 338.41 213.36 L 313.13 294.2 C 313.13 294.2 269.77 383.73 162.72 394.55 C 55.67 405.37 8.41 280.88 8.41 280.88 L 0 196.85 L 27.06 108.78 L 80.88 49.3 L 261.24 53.32 Z" fill="rgb(252,211,172)"></path><path d="M 211.77 164.45 L 223.87 170.11 C 223.87 170.11 232.66 195.37 231.23 200.73 C 229.8 206.09 215.5 213.5 209.65 206.22 C 203.79 198.94 201.83 176.74 201.83 176.74 C 201.83 176.74 206.7 165.74 211.78 164.45 Z" fill="rgb(15, 15, 15)"></path><path d="M 124.67 168.36 C 124.67 168.36 136.52 186.8 135.26 196.43 C 133.99 206.06 121.61 213.18 113.51 212.38 C 105.41 211.58 107.18 176.78 107.18 176.78 C 107.18 176.78 115.2 164.01 124.67 168.37 Z" fill="rgb(15, 15, 15)"></path><path d="M 239.68 0.01 L 273.76 59.14 L 214.68 100.52 C 214.68 100.52 149.12 123.81 103.97 109.67 C 58.82 95.53 45.7 77.18 47.95 62.09 C 50.2 47 91.58 4.11 91.58 4.11 L 133.39 11.97 L 169.19 1.96 L 207.7 12.81 L 239.67 0 Z" fill="rgb(15, 15, 15)"></path></g><path d="M 340.24 305.94 L 353.55 316.15 L 334.4 342.67 C 334.4 342.67 307.18 371.02 261.5 376.52 C 215.82 382.02 190.76 355.64 190.76 355.64 C 190.76 355.64 171.82 329.92 168.14 317.82 L 186.42 310.46 L 205.94 346.23 L 244.81 362.05 L 285.62 353.91 C 285.62 353.91 310.59 341.7 318.71 333.65 C 326.83 325.61 340.22 305.95 340.22 305.95 Z" fill="rgb(255, 83, 36)"></path><path d="M 101.11 228.9 L 183.23 132.98 L 139.61 124.95 L 101.11 176.93 Z" fill="rgb(15, 15, 15)"></path><path d="M 324.24 137.29 L 422.39 217.53 L 424.38 175.05 L 391.56 143.95 L 381.27 115 L 333.7 79.73 L 189.26 79.73 L 146.63 97.57 L 131.32 123.82 L 108.73 136.61 L 116.96 186.47 L 186.36 121.06 L 281.58 135.26 Z" fill="rgb(15, 15, 15)"></path><g transform="translate(159.67 203.078)"><path d="M 96.43 24.602 C 95.97 12.552 75.57 0.492 65.37 0.032 C 55.17 -0.428 30.6 4.202 30.6 4.202 L 2.32 32.002 L 0 45.462 C 0 45.462 6.03 69.572 11.59 76.742 C 17.15 83.912 43.11 96.462 54.7 96.462 C 66.29 96.462 86.22 80.702 92.25 70.042 C 98.28 59.382 96.89 36.662 96.42 24.612 Z M 82.92 63.972 C 78.81 70.032 63.05 85.792 57.95 86.252 C 52.85 86.712 25.04 74.662 22.25 70.022 C 19.47 65.382 14.37 41.212 14.37 34.992 C 14.37 28.772 38.01 13.932 38.01 13.932 L 63.51 10.692 C 70.46 10.692 80.26 19.502 83.01 24.132 C 85.76 28.762 87.02 57.912 82.92 63.972 Z" fill="rgb(47, 76, 156)"></path><path d="M 172.4 98.552 C 184.43 99.452 198.7 80.542 200.31 70.462 C 201.92 60.382 200.08 35.442 200.08 35.442 L 175.65 4.212 L 162.53 0.392 C 162.53 0.392 137.9 3.662 130.15 8.382 C 122.4 13.102 107.01 37.482 105.7 49.002 C 104.39 60.522 117.81 82.102 127.72 89.292 C 137.64 96.482 160.36 97.662 172.39 98.562 Z M 134.8 80.692 C 129.24 75.932 115.36 58.492 115.47 53.372 C 115.58 48.252 130.69 21.972 135.61 19.732 C 140.53 17.492 165.12 15.152 171.31 15.852 C 177.5 16.552 189.57 41.722 189.57 41.722 L 189.92 67.422 C 189.14 74.332 179.28 83.072 174.36 85.282 C 169.44 87.492 140.35 85.462 134.79 80.702 Z" fill="rgb(47, 76, 156)"></path><path d="M 87.75 46.632 C 87.75 46.632 94.37 38.212 100.17 37.982 C 105.97 37.752 111.6 48.222 111.6 48.222 L 111.6 61.382 C 111.6 61.382 108.22 51.542 101.92 50.952 C 95.62 50.362 87.74 59.132 87.74 59.132 L 87.74 46.632 Z" fill="rgb(47, 76, 156)"></path></g></svg>