<svg xmlns="http://www.w3.org/2000/svg" width="515" height="497" fill="none"><path d="M 468.2 245.01 C 463.21 232.46 456.6 221.23 448.93 211.64 C 460.38 198.05 466.37 181.93 464.66 165.29 C 461.13 130.86 425.85 105.31 381.55 102.02 C 371.86 66.48 327.17 42.76 276.47 47.96 C 257.45 49.91 240.09 55.68 225.69 64.06 C 196.49 42.12 161.64 36.91 137.12 53.89 C 122.45 64.05 113.93 80.47 111.64 99.52 C 99.74 99.65 88.47 102.89 78.8 109.59 C 55.21 125.93 47.51 158.45 56.11 192.11 C 19.07 233 8.57 286.45 34.13 323.36 C 65.5 368.65 139.31 371.86 198.98 330.53 C 245.74 298.14 269.94 248.01 263.13 206.03 C 265.22 203.31 267.07 200.39 268.68 197.31 C 275.82 218.93 296.09 235.84 322.61 243.98 C 321.34 261.41 324.16 280.55 331.64 299.35 C 352.01 350.54 399.09 379.88 436.8 364.87 C 474.51 349.86 488.56 296.2 468.19 245.01 Z" fill="rgb(255, 83, 36)"></path><g transform="translate(91.65 112.16)"><path d="M 261.22 4.02 C 261.22 4.02 309.9 59.18 321.11 74.47 C 332.32 89.77 338.41 164.06 338.41 164.06 L 313.13 244.9 C 313.13 244.9 269.77 334.43 162.72 345.25 C 55.67 356.07 8.41 231.58 8.41 231.58 L 0 147.55 L 27.06 59.48 L 80.88 0 L 261.24 4.02 Z" fill="rgb(252,211,172)"></path><path d="M 120.5 124.53 C 120.5 124.53 131.17 138.28 129.35 144.49 C 127.53 150.7 114.85 153.8 106.87 152.21 C 98.89 150.62 102.68 127.82 102.68 127.82 C 102.68 127.82 111.37 120.41 120.5 124.53 Z" fill="rgb(15, 15, 15)"></path><path d="M 210.02 129.23 C 210.02 129.23 203.24 145.26 206.59 150.79 C 209.94 156.32 222.99 156.06 230.3 152.48 C 237.6 148.9 228.09 127.83 228.09 127.83 C 228.09 127.83 217.79 122.9 210.03 129.23 Z" fill="rgb(15, 15, 15)"></path></g><path d="M 210.28 308.23 L 304.55 360.6 C 304.55 360.6 258.24 389.01 231.15 382.79 C 204.06 376.57 189.86 333.08 189.86 333.08 L 210.28 308.22 Z" fill="rgb(255, 255, 255)"></path><path d="M 91.64 259.71 L 189.87 140.89 C 189.87 140.89 227.82 168.36 273.6 170.19 C 319.38 172.02 350.52 140.89 350.52 140.89 L 430.05 276.23 C 430.05 276.23 430.44 191.53 415.74 162.48 C 411.19 153.5 351.49 84.74 351.49 84.74 C 287.48 69.05 179.15 76.43 179.15 76.43 L 116.09 143.63 L 91.64 259.7 Z" fill="rgb(255, 83, 36)"></path><g transform="translate(157.08 203.438)"><path d="M 96.43 24.602 C 95.97 12.552 75.57 0.492 65.37 0.032 C 55.17 -0.428 30.6 4.202 30.6 4.202 L 2.32 32.002 L 0 45.462 C 0 45.462 6.03 69.572 11.59 76.742 C 17.15 83.912 43.11 96.462 54.7 96.462 C 66.29 96.462 86.22 80.702 92.25 70.042 C 98.28 59.382 96.89 36.662 96.42 24.612 Z M 82.92 63.972 C 78.81 70.032 63.05 85.792 57.95 86.252 C 52.85 86.712 25.04 74.662 22.25 70.022 C 19.47 65.382 14.37 41.212 14.37 34.992 C 14.37 28.772 38.01 13.932 38.01 13.932 L 63.51 10.692 C 70.46 10.692 80.26 19.502 83.01 24.132 C 85.76 28.762 87.02 57.912 82.92 63.972 Z" fill="rgb(14, 156, 108)"></path><path d="M 172.4 98.562 C 184.43 99.462 198.7 80.552 200.31 70.472 C 201.92 60.392 200.08 35.452 200.08 35.452 L 175.65 4.222 L 162.53 0.402 C 162.53 0.402 137.9 3.672 130.15 8.392 C 122.4 13.112 107.01 37.492 105.7 49.012 C 104.39 60.532 117.81 82.112 127.72 89.302 C 137.64 96.492 160.36 97.672 172.39 98.572 Z M 134.8 80.702 C 129.24 75.942 115.36 58.502 115.47 53.382 C 115.58 48.262 130.69 21.982 135.61 19.742 C 140.53 17.502 165.12 15.162 171.31 15.862 C 177.5 16.562 189.57 41.732 189.57 41.732 L 189.92 67.432 C 189.14 74.342 179.28 83.082 174.36 85.292 C 169.44 87.502 140.35 85.472 134.79 80.712 Z" fill="rgb(14, 156, 108)"></path><path d="M 87.76 46.632 C 87.76 46.632 94.38 38.212 100.18 37.982 C 105.98 37.752 111.61 48.222 111.61 48.222 L 111.61 61.382 C 111.61 61.382 108.23 51.542 101.93 50.952 C 95.63 50.362 87.75 59.132 87.75 59.132 L 87.75 46.632 Z" fill="rgb(14, 156, 108)"></path></g></svg>